<?xml version="1.0" encoding="UTF-8"?>
<svg id="Layer_1" data-name="Layer 1" xmlns="http://www.w3.org/2000/svg" viewBox="0 0 65 65">
  <defs>
    <style>
      .cls-1 {
        fill: #fff;
      }

      .cls-2 {
        fill: #2006f7;
      }
    </style>
  </defs>
  <path class="cls-2" d="M.24,10.78v25.07c0,4.25,2.3,8.16,6.02,10.22l26.1,14.48.17.09,26.22-14.57c3.71-2.06,6.01-5.97,6.01-10.22V10.78H.24Z"/>
  <path class="cls-1" d="M55.43,20.52l-13.57,7.57c-1.31.73-2.79,1.12-4.29,1.12l-25.62.08,12.91-7.2c1.94-1.08,4.14-1.65,6.36-1.64l24.2.07ZM11.67,42.05l13.57-7.57c1.31-.73,2.79-1.12,4.29-1.12l25.62-.08-12.91,7.2c-1.94,1.08-4.14,1.65-6.36,1.64l-24.2-.07Z"/>
</svg>
