<?xml version="1.0" encoding="UTF-8" standalone="no"?>
<!-- Created with Inkscape (http://www.inkscape.org/) -->

<svg
   width="28.326422mm"
   height="21.881041mm"
   viewBox="0 0 28.326422 21.881041"
   version="1.1"
   id="svg1"
   xmlns="http://www.w3.org/2000/svg"
   xmlns:svg="http://www.w3.org/2000/svg">
  <defs
     id="defs1" />
  <g
     id="layer1"
     transform="translate(-66.891225,-54.523686)">
    <path
       class="cls-1"
       d="m 66.895437,54.523716 c 0.01683,3.839344 -0.03413,7.680917 0.02632,11.518829 0.154518,1.920191 1.518489,3.539135 3.237141,4.311854 3.632184,2.017074 7.265704,4.031773 10.897054,6.050327 3.932028,-2.193737 7.879746,-4.360596 11.801858,-6.571321 1.660517,-1.031479 2.502141,-3.033337 2.340122,-4.946989 0,-3.454243 0,-6.908487 0,-10.36273 -9.434167,1e-5 -18.868333,2e-5 -28.3025,3e-5 z m 18.42558,13.03073 c -1.743363,1.030257 -3.803966,0.647242 -5.724842,0.713524 -2.561413,-0.0077 -5.122825,-0.01534 -7.684238,-0.02301 2.135894,-1.169359 4.238055,-2.405234 6.396258,-3.530615 1.357424,-0.471702 2.817866,-0.219934 4.228446,-0.290565 2.816369,-0.0086 5.632737,-0.01724 8.449106,-0.02586 -1.887486,1.0504 -3.781,2.115005 -5.66473,3.15653 z m -0.16404,-5.43454 c -1.392211,0.762369 -3.012879,0.417334 -4.528487,0.502872 -2.864068,0.0088 -5.728135,0.01753 -8.592203,0.0263 2.112138,-1.147339 4.174022,-2.394616 6.321479,-3.471785 1.63782,-0.65009 3.422267,-0.331794 5.137002,-0.400645 2.537563,0.0076 5.075126,0.0152 7.612689,0.0228 -1.980984,1.10677 -3.982068,2.21393 -5.95048,3.32046 z"
       id="path1"
       style="fill:#2006f7;stroke-width:0px" />
  </g>
</svg>
