<?xml version="1.0" encoding="UTF-8" standalone="no"?>
<svg
   id="Layer_1"
   data-name="Layer 1"
   viewBox="0 0 868.14001 82.699997"
   version="1.1"
   width="868.14001"
   height="82.699997"
   xmlns="http://www.w3.org/2000/svg"
   xmlns:svg="http://www.w3.org/2000/svg">
  <defs
     id="defs1">
    <style
       id="style1">
      .cls-1 {
        fill: #2006f7;
      }

      .cls-1, .cls-2 {
        stroke-width: 0px;
      }

      .cls-2 {
        fill: #001a47;
      }
    </style>
  </defs>
  <path
     class="cls-1"
     d="M 0,0 V 41.57 C 0,48.62 3.82,55.1 9.97,58.52 L 53.24,82.54 53.52,82.7 97,58.54 c 6.15,-3.42 9.97,-9.9 9.97,-16.94 V 0 Z m 69.64,49.25 c -3.23,1.79 -6.86,2.73 -10.55,2.73 L 18.96,51.86 41.46,39.32 c 2.17,-1.22 4.61,-1.85 7.11,-1.87 L 91.05,37.32 69.65,49.26 H 69.64 Z M 69.02,28.71 c -2.17,1.22 -4.61,1.85 -7.11,1.87 l -42.48,0.13 21.4,-11.94 c 3.23,-1.79 6.86,-2.73 10.55,-2.73 l 40.13,0.12 -22.5,12.54 h 0.01 z"
     id="path1" />
  <g
     id="g6"
     transform="translate(-45.49,-438.7)">
    <path
       class="cls-2"
       d="m 889.07,469.03 h -68.18 c -3.11,0 -5.64,-2.53 -5.64,-5.64 0,-3.11 2.53,-5.64 5.64,-5.64 h 88.72 v -18.92 h -88.72 c -13.54,0 -24.56,11.02 -24.56,24.56 0,13.54 11.02,24.56 24.56,24.56 h 68.18 c 3.11,0 5.64,2.57 5.64,5.67 0,3.1 -2.53,5.54 -5.64,5.54 h -88.91 v 18.92 h 88.91 c 13.54,0 24.56,-10.9 24.56,-24.44 0,-13.54 -11.02,-24.59 -24.56,-24.59 v 0 z"
       id="path2" />
    <path
       class="cls-2"
       d="M 375.04,438.87 H 338.1 c -21.87,0 -39.67,17.8 -39.67,39.67 0,21.87 17.8,39.67 39.67,39.67 h 36.94 c 21.87,0 39.67,-17.8 39.67,-39.67 0,-21.87 -17.8,-39.67 -39.67,-39.67 z m 0,60.42 H 338.1 c -11.43,0 -20.73,-9.3 -20.73,-20.73 0,-11.43 9.3,-20.73 20.73,-20.73 h 36.94 c 11.43,0 20.73,9.3 20.73,20.73 0,11.43 -9.3,20.73 -20.73,20.73 z"
       id="path3" />
    <path
       class="cls-2"
       d="m 748.68,438.87 h -36.94 c -21.87,0 -39.67,17.8 -39.67,39.67 0,21.87 17.8,39.67 39.67,39.67 h 36.94 c 21.87,0 39.67,-17.8 39.67,-39.67 0,-21.87 -17.8,-39.67 -39.67,-39.67 z m 0,60.42 h -36.94 c -11.43,0 -20.73,-9.3 -20.73,-20.73 0,-11.43 9.3,-20.73 20.73,-20.73 h 36.94 c 11.43,0 20.73,9.3 20.73,20.73 0,11.43 -9.3,20.73 -20.73,20.73 z"
       id="path4" />
    <polygon
       class="cls-2"
       points="567.9,468.97 567.9,438.96 548.95,438.96 548.95,518.12 567.9,518.12 567.9,487.92 641.89,487.92 641.89,518.12 660.84,518.12 660.84,438.96 641.89,438.96 641.89,468.97 "
       id="polygon4" />
    <path
       class="cls-2"
       d="m 266.74,469.03 h -68.18 c -3.11,0 -5.64,-2.53 -5.64,-5.64 0,-3.11 2.53,-5.64 5.64,-5.64 h 88.72 v -18.92 h -88.72 c -13.54,0 -24.56,11.02 -24.56,24.56 0,13.54 11.02,24.56 24.56,24.56 h 68.18 c 3.11,0 5.64,2.57 5.64,5.67 0,3.1 -2.53,5.54 -5.64,5.54 h -88.91 v 18.92 h 88.91 c 13.54,0 24.56,-10.9 24.56,-24.44 0,-13.54 -11.02,-24.59 -24.56,-24.59 v 0 z"
       id="path5" />
    <path
       class="cls-2"
       d="m 508.44,438.96 h -82.83 v 79.15 h 18.95 V 496.9 h 63.88 c 15.98,0 28.98,-13 28.98,-28.98 0,-15.98 -13,-28.98 -28.98,-28.98 v 0 z m 0,39 H 444.56 V 457.9 h 63.88 c 5.54,0 10.03,4.49 10.03,10.03 0,5.54 -4.49,10.03 -10.03,10.03 z"
       id="path6" />
  </g>
</svg>
